Coordinates
version=1
nRows=65
nColumns=12
inDegrees=yes

Units are S.I. units (second, meters, Newtons, ...)
Angles are in degrees

endheader
time	SC_y	SC_z	SC_x	AC_y	AC_z	AC_x	GH_y	GH_z	GH_yy	EL_x	PS_y
       0.0               -50.9          28.05           28.8          63.66        -0.5715          7.538         -104.1          86.81          67.23          114.4          150.2
  0.002766               -50.9          28.05           28.8          63.65        -0.5731          7.538         -104.1          86.81          67.21          114.4          150.2
  0.005531              -50.89          28.05          28.79          63.65        -0.5748          7.538         -104.1           86.8          67.19          114.4          150.2
  0.008297              -50.89          28.05          28.79          63.65        -0.5766          7.538         -104.1           86.8          67.17          114.4          150.1
   0.01106              -50.88          28.06          28.79          63.65        -0.5786          7.539         -104.1          86.79          67.14          114.4          150.1
   0.01383              -50.87          28.06          28.79          63.65        -0.5806          7.539         -104.1          86.78          67.11          114.4          150.1
   0.01659              -50.86          28.06          28.79          63.64        -0.5828          7.539         -104.1          86.78          67.08          114.4          150.1
   0.01936              -50.86          28.06          28.79          63.64        -0.5852           7.54         -104.1          86.77          67.05          114.4          150.1
   0.02213              -50.85          28.06          28.79          63.64        -0.5877           7.54         -104.1          86.76          67.02          114.4          150.1
   0.02489              -50.84          28.07          28.79          63.63        -0.5904           7.54         -104.1          86.75          66.98          114.4          150.0
   0.02766              -50.83          28.07          28.79          63.63        -0.5933          7.541         -104.1          86.74          66.95          114.4          150.0
   0.03042              -50.82          28.07          28.79          63.63        -0.5964          7.541         -104.1          86.73           66.9          114.4          150.0
   0.03319               -50.8          28.08          28.79          63.62        -0.5998          7.541         -104.1          86.72          66.86          114.4          150.0
   0.03595              -50.79          28.08          28.79          63.62        -0.6034          7.542         -104.0          86.71          66.81          114.4          150.0
   0.03872              -50.78          28.08          28.78          63.62        -0.6073          7.542         -104.0           86.7          66.76          114.4          149.9
   0.04148              -50.76          28.09          28.78          63.61        -0.6116          7.543         -104.0          86.68           66.7          114.4          149.9
   0.04425              -50.75          28.09          28.78          63.61        -0.6162          7.543         -104.0          86.67          66.64          114.4          149.9
   0.04702              -50.73          28.09          28.78           63.6        -0.6213          7.544         -104.0          86.65          66.58          114.4          149.8
   0.04978              -50.71           28.1          28.78          63.59        -0.6268          7.545         -104.0          86.63           66.5          114.5          149.8
   0.05255              -50.69           28.1          28.78          63.59        -0.6328          7.545         -104.0          86.62          66.42          114.5          149.7
   0.05531              -50.66          28.11          28.77          63.58        -0.6395          7.546         -103.9          86.59          66.33          114.5          149.7
   0.05808              -50.64          28.12          28.77          63.57        -0.6468          7.547         -103.9          86.57          66.24          114.5          149.6
   0.06084              -50.61          28.12          28.77          63.56        -0.6548          7.548         -103.9          86.54          66.13          114.5          149.6
   0.06361              -50.58          28.13          28.77          63.55        -0.6637          7.549         -103.9          86.52          66.01          114.5          149.5
   0.06638              -50.54          28.14          28.76          63.54        -0.6737           7.55         -103.8          86.48          65.88          114.5          149.5
   0.06914               -50.5          28.15          28.76          63.53        -0.6847          7.552         -103.8          86.45          65.74          114.5          149.4
   0.07191              -50.46          28.16          28.76          63.52        -0.6971          7.553         -103.8          86.41          65.57          114.5          149.3
   0.07467              -50.41          28.17          28.75           63.5        -0.7111          7.555         -103.7          86.36          65.39          114.5          149.2
   0.07744              -50.35          28.19          28.75          63.48        -0.7269          7.557         -103.7          86.31          65.18          114.5          149.1
    0.0802              -50.29           28.2          28.74          63.46        -0.7448          7.559         -103.6          86.25          64.94          114.5          149.0
   0.08297              -50.21          28.22          28.73          63.44        -0.7652          7.561         -103.6          86.19          64.67          114.6          148.8
   0.08574              -50.13          28.24          28.73          63.42        -0.7886          7.564         -103.5          86.11          64.36          114.6          148.6
    0.0885              -50.03          28.27          28.72          63.39        -0.8157          7.567         -103.4          86.03           64.0          114.6          148.4
   0.09127              -49.92          28.29          28.71          63.35        -0.8472          7.571         -103.3          85.92          63.59          114.6          148.2
   0.09403              -49.79          28.33           28.7          63.31         -0.884          7.576         -103.2          85.81           63.1          114.7          148.0
    0.0968              -49.64          28.36          28.68          63.26        -0.9274          7.581         -103.1          85.67          62.53          114.7          147.7
   0.09956              -49.45          28.41          28.67           63.2        -0.9789          7.587         -102.9           85.5          61.85          114.7          147.3
    0.1023              -49.23          28.46          28.65          63.14         -1.041          7.595         -102.7           85.3          61.03          114.8          146.9
    0.1051              -48.97          28.53          28.62          63.05         -1.116          7.604         -102.5          85.06          60.04          114.8          146.3
    0.1079              -48.64          28.61          28.59          62.95         -1.207          7.615         -102.2          84.77          58.83          114.9          145.7
    0.1106              -48.24          28.71          28.56          62.83          -1.32          7.628         -101.9           84.4          57.34          115.0          144.9
    0.1134              -47.74          28.83          28.51          62.67          -1.46          7.646         -101.5          83.95          55.48          115.1          143.9
    0.1162              -47.11          28.99          28.45          62.47         -1.637          7.667         -100.9          83.38          53.14          115.2          142.6
    0.1189               -46.3          29.19          28.38          62.23         -1.862          7.694         -100.3          82.66          50.17          115.4          141.0
    0.1217              -45.28          29.44          28.29          61.91         -2.151          7.729          -99.4          81.73          46.36          115.6          139.0
    0.1245              -43.96          29.77          28.17           61.5          -2.52          7.774         -98.29          80.54          41.47          115.9          136.4
    0.1272              -42.28          30.18          28.02          60.97         -2.993          7.831         -96.88          79.02          35.22          116.3          133.0
      0.13              -40.16          30.71          27.83          60.32         -3.587          7.903         -95.09           77.1          27.37          116.8          128.8
    0.1328              -37.58          31.34           27.6          59.51          -4.31          7.991         -92.92          74.77           17.8          117.3          123.7
    0.1355              -34.59          32.08          27.33          58.58         -5.149          8.092          -90.4          72.07          6.706          118.0          117.8
    0.1383              -31.35          32.88          27.04          57.58         -6.058          8.203         -87.68          69.15         -5.305          118.7          111.3
     0.141              -28.12          33.68          26.75          56.57         -6.966          8.313         -84.95          66.22         -17.32          119.4          104.9
    0.1438              -25.13          34.42          26.48          55.64         -7.805          8.414         -82.43          63.52         -28.41          120.1          98.97
    0.1466              -22.55          35.06          26.25          54.84         -8.529          8.502         -80.26          61.19         -37.98          120.6          93.85
    0.1493              -20.43          35.58          26.06          54.18         -9.123          8.574         -78.48          59.28         -45.83          121.1          89.64
    0.1521              -18.75           36.0          25.91          53.66         -9.595          8.631         -77.06          57.75         -52.08          121.5           86.3
    0.1549              -17.43          36.32          25.79          53.25         -9.965          8.676         -75.95          56.56         -56.96          121.8          83.68
    0.1576               -16.4          36.58          25.69          52.93         -10.25          8.711         -75.09          55.64         -60.77          122.0          81.64
    0.1604               -15.6          36.77          25.62          52.68         -10.48          8.738         -74.41          54.91         -63.75          122.2          80.04
    0.1632              -14.97          36.93          25.57          52.49         -10.66           8.76         -73.88          54.34         -66.09          122.3          78.79
    0.1659              -14.47          37.05          25.52          52.33          -10.8          8.777         -73.46          53.89         -67.95          122.4           77.8
    0.1687              -14.07          37.15          25.48          52.21         -10.91           8.79         -73.12          53.52         -69.44          122.5           77.0
    0.1715              -13.74          37.23          25.46           52.1          -11.0          8.801         -72.85          53.23         -70.65          122.6          76.35
    0.1742              -13.47           37.3          25.43          52.02         -11.08           8.81         -72.62          52.99         -71.64          122.6          75.82
     0.177              -13.25          37.35          25.41          51.95         -11.14          8.818         -72.44          52.79         -72.46          122.7          75.38
